ply
format ascii 1.0
comment Created in Blender version 4.1.0
element vertex 337
property float x
property float y
property float z
property float nx
property float ny
property float nz
element face 630
property list uchar uint vertex_indices
end_header
0.29476106 -0.12209658 0.31904 -0.69148374 0.2864341 0.667707
0.09157243 -0.22107077 0.31904 -0.25223592 0.6089246 0.75605226
-0.12209661 -0.29476106 0.31904 0.28643396 0.6914822 0.6677087
-1.3945681e-08 -0.31904 0.31904 -6.914167e-08 0.7484225 0.66775054
-0.22559318 -0.22559318 0.31904 0.5292093 0.52921027 0.6677581
-0.29476106 -0.12209661 0.31904 0.6914844 0.28643498 0.6677061
-0.2210708 0.09157245 0.31904 0.6089244 -0.2522363 0.75605214
-0.22559321 0.22559315 0.31904 0.5292102 -0.5292094 0.6677581
-0.09157249 0.22107077 0.31904 0.2522359 -0.60892457 0.75605226
-0.12209664 0.29476106 0.31904 0.28643486 -0.6914831 0.6677074
-4.1837044e-08 0.31904 0.31904 5.6815145e-07 -0.7484213 0.6677517
-3.8350624e-08 0.23927999 0.31904 -2.0983667e-07 -0.65913624 0.75602007
0.22559312 0.22559318 0.31904 -0.5292106 -0.52921057 0.6677569
0.16919485 0.16919488 0.31904 -0.46608636 -0.4660861 0.75601214
0.31904 1.394568e-08 0.31904 -0.7484214 -6.3715333e-07 0.6677518
0.12209655 0.29476106 0.31904 -0.28643402 -0.69148344 0.6677073
0.12209655 0.29476106 0.39879996 -0.25223604 -0.60892326 0.75605315
0.29476103 0.12209661 0.31904 -0.6914824 -0.28643423 0.6677083
0.22559315 -0.22559315 0.31904 -0.52921027 0.5292093 0.66775817
0.22559313 -0.22559315 0.39879996 -0.4660873 0.4660878 0.7560104
0.12209658 -0.29476106 0.31904 -0.28643492 0.6914831 0.6677074
0.122096576 -0.29476106 0.39879996 -0.25223517 0.6089237 0.75605327
-0.2255932 -0.22559318 0.39879996 0.46608776 0.46608734 0.7560104
-0.31904 -1.3945682e-08 0.31904 0.74842 3.2714482e-08 0.6677533
-0.29476112 0.12209658 0.39879996 0.60892314 -0.25223607 0.7560533
-0.31904006 -1.3945683e-08 0.39879996 0.6591394 2.9032595e-08 0.7560173
-0.2947611 0.12209658 0.31904 0.6914835 -0.28643408 0.66770744
-0.12209664 0.29476106 0.39879996 0.2522351 -0.6089237 0.75605327
-4.880988e-08 0.31904 0.39879996 -4.0935498e-07 -0.6591383 0.7560184
-0.25379238 0.25379232 0.39879996 1.2358437e-07 5.402045e-15 1.003009
-0.33160624 0.13735867 0.39879996 -3.3686874e-07 4.123208e-08 1.003009
-0.22559321 0.22559315 0.39879996 0.46608725 -0.46608782 0.7560104
-0.2947611 -0.12209661 0.39879996 0.60892206 0.25223508 0.7560544
-0.12209662 -0.29476106 0.39879996 0.252236 0.6089246 0.7560521
-1.917531e-08 -0.35891998 0.39879996 -4.3842906e-08 -1.9164343e-15 1.003009
-2.091852e-08 -0.31904 0.39879996 -4.562748e-08 0.65913695 0.7560195
0.2537923 -0.25379232 0.39879996 -2.112702e-07 -9.234915e-15 1.003009
0.33160615 -0.13735867 0.39879996 -6.2989625e-07 4.123207e-08 1.003009
0.29476103 -0.12209658 0.39879996 -0.6089234 0.25223616 0.75605303
0.33160612 0.1373587 0.39879996 -6.298962e-07 -4.1232127e-08 1.003009
0.31903994 1.3945678e-08 0.39879996 -0.6591384 4.3042573e-07 0.7560182
0.22559312 0.22559318 0.39879996 -0.4660866 -0.46608666 0.7560116
0.294761 0.12209661 0.39879996 -0.6089248 -0.25223625 0.75605196
0.13735864 0.33160618 0.39879996 -1.1553414e-08 -5.0501555e-16 1.003009
0.09157242 0.22107077 0.31904 -0.25223625 -0.6089244 0.75605226
0.22107074 0.09157246 0.31904 -0.6089246 -0.2522358 0.7560522
0.23928002 1.0459262e-08 -0.31904 -0.65913624 -3.922009e-07 -0.7560201
0.23927996 1.0459259e-08 0.31904 -0.6591364 3.297959e-07 0.75602007
0.22107074 -0.09157245 0.31904 -0.60892445 0.2522363 0.75605214
0.16919486 -0.16919488 0.31904 -0.46608612 0.46608642 0.75601214
0.1691949 -0.16919488 -0.31904 -0.4660863 0.46608597 -0.7560122
3.8350624e-08 -0.23927999 -0.31904 -2.1252349e-07 0.6591363 -0.7560201
-1.74321e-08 -0.23927999 0.31904 1.5649378e-07 0.6591363 0.7560201
-0.09157248 -0.22107077 0.31904 0.2522362 0.6089244 0.75605226
-0.16919489 -0.16919488 0.31904 0.4660863 0.4660861 0.7560122
-0.16919485 -0.16919488 -0.31904 0.466086 0.46608645 -0.7560121
-0.2210708 -0.09157246 0.31904 0.60892457 0.2522358 0.75605214
-0.23928002 -1.0459262e-08 0.31904 0.6591362 -3.3617113e-07 0.7560201
-0.16919486 0.16919488 -0.31904 0.46608636 -0.46608603 -0.7560121
-0.1691949 0.16919488 0.31904 0.466086 -0.46608633 0.7560122
-0.09157243 0.22107077 -0.31904 0.25223634 -0.6089244 -0.75605226
0.1373587 0.33160618 -0.39879996 7.6132594e-08 3.3278612e-15 -1.003009
0.3316062 0.1373587 -0.39879996 3.368687e-07 4.1232116e-08 -1.003009
0.2947611 0.12209661 -0.39879996 -0.60892344 -0.25223517 -0.7560533
0.2255932 0.22559318 -0.39879996 -0.46608776 -0.46608734 -0.7560104
0.35892004 1.5688892e-08 -0.3987999 2.8331112e-08 1.2383921e-15 -1.003009
0.31904006 1.3945683e-08 -0.39879996 -0.65913683 -2.8811789e-08 -0.7560196
0.25379238 -0.25379232 -0.39879996 -1.2358437e-07 -5.402045e-15 -1.003009
0.29476112 -0.12209658 -0.39879996 -0.6089245 0.25223607 -0.75605214
4.880988e-08 -0.31904 -0.39879996 4.122497e-07 0.65913826 -0.7560184
0.12209664 -0.29476106 -0.39879996 -0.25223508 0.6089236 -0.75605327
5.055309e-08 -0.35891998 -0.39879996 4.3842906e-08 1.9164343e-15 -1.003009
-0.13735864 -0.33160618 -0.39879996 1.1553418e-08 5.0501576e-16 -1.003009
-0.294761 -0.12209661 -0.39879996 0.6089238 0.25223517 -0.75605303
-0.33160612 -0.1373587 -0.39879996 6.2989625e-07 4.1232127e-08 -1.003009
-0.35891992 -1.568889e-08 -0.39880002 5.9354722e-08 2.5944772e-15 -1.003009
-0.33160615 0.13735867 -0.39879996 6.298962e-07 -4.123207e-08 -1.003009
-0.2537923 0.25379232 -0.39879996 2.112702e-07 9.234915e-15 -1.003009
-0.22559313 0.22559315 -0.39879996 0.4660873 -0.4660878 -0.7560104
1.917531e-08 0.35891998 -0.39879996 4.3842928e-08 1.9164351e-15 -1.003009
2.091852e-08 0.31904 -0.39879996 -3.780327e-07 -0.6591383 -0.7560184
0.2210708 -0.09157245 -0.31904 -0.6089246 0.2522357 -0.75605214
0.09157249 -0.22107077 -0.31904 -0.2522363 0.60892445 -0.75605226
0.12209664 -0.29476106 -0.31904 -0.28643486 0.6914831 -0.6677074
-0.09157242 -0.22107077 -0.31904 0.2522359 0.60892457 -0.75605226
-0.12209655 -0.29476106 -0.31904 0.28643402 0.69148344 -0.6677074
-0.22107074 -0.09157246 -0.31904 0.60892445 0.25223637 -0.7560522
-0.22559312 -0.22559318 -0.31904 0.5292093 0.5292102 -0.6677581
-0.23927996 -1.0459259e-08 -0.31904 0.6591363 3.8582562e-07 -0.75602007
-0.22107074 0.09157245 -0.31904 0.6089247 -0.2522357 -0.75605226
-0.22559315 0.22559315 -0.31904 0.52921027 -0.5292093 -0.66775817
-0.29476106 0.12209658 -0.31904 0.6914837 -0.2864341 -0.667707
0.09157248 0.22107077 -0.31904 -0.25223583 -0.60892457 -0.75605226
1.74321e-08 0.23927999 -0.31904 2.658664e-07 -0.6591363 -0.7560201
0.29476106 0.12209661 -0.31904 -0.6914832 -0.28643495 -0.6677073
0.2210708 0.09157246 -0.31904 -0.60892445 -0.25223637 -0.75605214
0.16919489 0.16919488 -0.31904 -0.46608594 -0.4660864 -0.7560122
1.3945681e-08 0.31904 -0.31904 6.3376694e-07 -0.7484213 -0.6677518
0.12209661 0.29476106 -0.31904 -0.28643396 -0.69148344 -0.6677074
0.12209662 0.29476106 -0.39879996 -0.252236 -0.6089233 -0.75605327
0.22559318 0.22559318 -0.31904 -0.5292093 -0.52921027 -0.6677581
0.31904 1.3945682e-08 -0.31904 -0.7484224 -3.271458e-08 -0.6677509
0.2947611 -0.12209658 -0.31904 -0.69148225 0.28643408 -0.66770864
0.22559321 -0.22559315 -0.31904 -0.5292102 0.5292094 -0.6677581
0.22559321 -0.22559315 -0.39879996 -0.46608725 0.46608782 -0.7560104
4.1837044e-08 -0.31904 -0.31904 -5.681514e-07 0.7484212 -0.66775185
-0.12209655 -0.29476106 -0.39879996 0.252236 0.60892326 -0.75605315
-0.22559312 -0.22559318 -0.39879996 0.46608782 0.46608722 -0.7560104
-0.29476103 -0.12209661 -0.31904 0.6914834 0.28643513 -0.667707
-0.31903994 -1.3945678e-08 -0.39879996 0.6591384 -4.3179887e-07 -0.7560182
-0.31904 -1.394568e-08 -0.31904 0.7484214 6.3715333e-07 -0.6677518
-0.29476103 0.12209658 -0.39879996 0.6089234 -0.2522362 -0.75605303
-0.122096576 0.29476106 -0.39879996 0.25223517 -0.6089237 -0.7560532
-0.12209658 0.29476106 -0.31904 0.28643492 -0.6914831 -0.6677074
0.13735867 -0.33160618 0.39879996 -1.1553418e-08 -5.0501576e-16 1.003009
0.28199142 -0.28199145 0.39879996 0.529235 -0.52923506 0.6677181
0.3684513 -0.15262073 0.39880002 0.6914752 -0.2864313 0.6677171
0.3987999 1.7432098e-08 0.39880002 0.74845326 -1.4006458e-06 0.6677162
0.35891992 1.568889e-08 0.39880002 -5.9354722e-08 -2.5944772e-15 1.003009
0.2819914 0.28199145 0.39879996 0.5292336 0.52923155 0.66772205
0.25379226 0.25379232 0.39879996 -2.112702e-07 -9.234915e-15 1.003009
0.1526207 0.36845133 0.39879996 0.2864342 0.69147825 0.66771257
-5.22963e-08 0.39879996 0.39879996 1.5379603e-06 0.74845326 0.66771597
-0.13735873 0.33160618 0.39879996 -7.6132594e-08 -3.3278612e-15 1.003009
-5.055309e-08 0.35891998 0.39879996 -4.3842928e-08 -1.9164351e-15 1.003009
-0.15262079 0.36845133 0.39879996 -0.2864313 0.6914796 0.66771257
-0.3684514 0.15262073 0.3987999 -0.69147855 0.28643414 0.6677123
-0.39880002 -1.7432102e-08 0.3987999 -0.7484534 1.3934059e-06 0.6677158
-0.35892004 -1.5688892e-08 0.3987999 -2.8331112e-08 -1.2383921e-15 1.003009
-0.28199148 -0.28199145 0.39879996 -0.52922994 -0.5292302 0.66772604
-0.25379235 -0.25379232 0.39879996 1.2358437e-07 5.402045e-15 1.003009
-0.3316062 -0.1373587 0.39879996 -3.3686868e-07 -4.1232116e-08 1.003009
-0.1373587 -0.33160618 0.39879996 -7.6132594e-08 -3.3278614e-15 1.003009
-0.15262076 -0.36845133 0.39879996 -0.28643417 -0.6914783 0.66771257
0.15262076 0.36845133 -0.39879996 0.28643125 0.69147956 -0.66771257
0.25379235 0.25379232 -0.39879996 -1.2358437e-07 -5.402045e-15 -1.003009
0.33160624 -0.13735867 -0.39879996 3.368687e-07 -4.123208e-08 -1.003009
0.2819915 -0.28199145 -0.39879996 0.52923006 -0.5292302 -0.66772604
0.15262079 -0.36845133 -0.39879996 0.28643423 -0.6914784 -0.6677125
0.13735873 -0.33160618 -0.39879996 7.6132594e-08 3.3278614e-15 -1.003009
5.22963e-08 -0.39879996 -0.39879996 1.6581458e-06 -0.7484533 -0.66771585
-0.1526207 -0.36845133 -0.39879996 -0.28643128 -0.6914796 -0.66771257
-0.25379226 -0.25379232 -0.39879996 2.112702e-07 9.234915e-15 -1.003009
-0.13735867 0.33160618 -0.39879996 1.1553414e-08 5.0501555e-16 -1.003009
1.74321e-08 0.39879996 -0.39879996 -1.5997726e-06 0.7484533 -0.667716
-0.15262073 0.36845133 -0.39879996 -0.28643423 0.69147825 -0.6677127
-0.2819915 0.28199145 0.39879996 -0.5292314 0.5292339 0.66772205
-0.28199142 0.28199145 -0.39879996 -0.52923363 0.5292316 -0.66772205
-0.3684513 0.15262073 -0.39880002 -0.6914791 0.28643143 -0.66771305
-0.3987999 -1.7432098e-08 -0.39880002 -0.7484532 -1.4687922e-06 -0.66771615
-0.36845136 -0.15262076 0.3987999 -0.6914825 -0.2864343 0.6677083
-0.36845127 -0.15262076 -0.39880002 -0.69147515 -0.28643146 -0.6677171
-0.2819914 -0.28199145 -0.39879996 -0.5292349 -0.5292351 -0.6677181
0.15262073 -0.36845133 0.39879996 0.2864313 -0.6914796 0.6677125
-1.74321e-08 -0.39879996 0.39879996 -1.5963338e-06 -0.7484534 0.66771597
0.3684514 -0.15262073 -0.3987999 0.69148254 -0.2864342 -0.6677083
0.39880002 1.7432102e-08 -0.3987999 0.74845344 1.4561232e-06 -0.6677157
0.36845136 0.15262076 -0.3987999 0.6914786 0.2864342 -0.6677122
0.28199148 0.28199145 -0.39879996 0.52923137 0.5292338 -0.66772205
0.36845127 0.15262076 0.39880002 0.691479 0.28643143 0.667713
1.51544 0.3684514 -0.15262063 -6.6685732e-09 0.9266536 -0.38384888
0.15262073 0.36845133 -0.15262075 -1.8190285e-08 0.9575357 -0.29858375
1.51544 0.39880002 1.3248396e-07 -4.4360572e-08 1.003009 4.8506394e-09
0.28199145 0.28199145 -0.28199145 2.0332303e-08 0.7581634 -0.65666986
1.51544 0.2819915 -0.28199133 2.8663086e-08 0.70923513 -0.7092338
0.28199148 -0.28199145 -0.28199145 8.661305e-08 -0.7581634 -0.6566698
0.15262078 -0.36845133 -0.15262075 6.552014e-08 -0.9575358 -0.29858354
1.51544 -0.3987999 1.3248396e-07 4.3325365e-08 -1.003009 -9.3131774e-07
1.51544 -0.36845127 0.15262087 5.7539484e-09 -0.9266536 0.38384888
0.15262076 -0.36845133 0.15262075 1.3272265e-08 -0.9575358 0.29858375
1.74321e-08 -0.39879996 0 4.3842913e-08 -1.003009 1.0540636e-07
1.51544 -0.2819914 0.28199157 -2.3105716e-08 -0.70923513 0.7092337
0.3684513 -0.15262073 0.3684514 -4.5227708e-08 -0.4207776 0.9104796
0.28199145 -0.28199145 0.28199145 -3.1779976e-08 -0.7581634 0.65666974
0.28199142 0.28199145 0.28199145 -9.806073e-08 0.7581634 0.65666974
0.36845127 0.15262076 0.3684514 -8.201326e-08 0.4207776 0.9104796
1.51544 0.2819915 0.28199157 -8.510887e-08 0.70923364 0.7092352
1.51544 0.3684514 0.15262087 -7.525679e-08 0.9266533 0.38384983
-1.74321e-08 0.39879996 0 -4.384291e-08 1.003009 -1.3415354e-07
0.15262072 0.36845133 0.15262075 -7.0438176e-08 0.9575358 0.2985836
0.36845136 0.15262076 -0.36845127 4.357389e-08 0.42077744 -0.91047966
1.51544 0.07976007 -0.38292763 -0.66537064 -0.47619945 -0.5801231
0.3684514 -0.15262073 -0.36845127 8.035942e-08 -0.42077744 -0.91047966
1.51544 -0.07975993 -0.38292763 -0.6653881 0.47618964 -0.58011115
1.51544 -0.15262069 -0.3684512 9.4108444e-08 -0.38381127 -0.9266692
0.3829277 0.079760015 0.3829278 -1.1746582e-08 -0.5804474 0.8179901
0.39879996 0.23928 3.48642e-08 0.6677144 -0.7484547 6.797735e-05
0.39879996 0.22105487 -0.09156445 0.6677457 -0.6914542 0.2864152
1.51544 0.1692109 -0.16921072 -0.00027373986 -0.7092343 0.70923454
0.39879996 0.09156449 -0.22105482 0.6677331 -0.2865099 0.69142723
0.39879996 -0.16921082 -0.1692108 0.6676679 0.5293109 0.5292224
1.51544 -0.16921078 -0.16921072 -0.000284075 0.7091715 0.70929724
0.39879996 -0.22105484 -0.09156445 0.66776305 0.691472 0.2863318
1.51544 -0.22105479 -0.09156434 0.00012949295 0.9266833 0.38377714
0.39879996 -0.23927997 3.48642e-08 0.66771156 0.7484572 6.4291955e-05
1.51544 -0.16921078 0.16921096 1.4077335e-07 0.7091709 -0.70929796
1.51544 -0.22105479 0.09156461 0.00016552414 0.9267002 -0.38373643
0.39879996 -0.16921082 0.16921087 0.6676811 0.5292559 -0.5292609
1.51544 0.09156454 0.22105497 0.00016616935 -0.38390946 -0.9266286
1.51544 0.23928005 1.3248396e-07 -2.4530886e-05 -1.003009 3.5138324e-05
1.51544 0.07976007 -0.22338769 -0.494314 -0.67390335 0.5545583
1.51544 -0.09156441 -0.22103478 0.00030106914 0.3838125 0.9266687
1.51544 -0.07975993 -0.22338769 -0.4938895 0.6749325 0.5536844
0.39879996 -0.079759985 -0.22338778 0.37648323 -0.9006103 0.23062603
1.51544 -0.09156441 0.22103502 0.00019568995 0.38418788 -0.92651314
1.51544 6.624199e-08 -0.39879984 -0.6677031 1.5562226e-06 -0.7484648
1.51544 6.624199e-08 -0.23927987 -0.7561176 8.7344146e-05 0.65902436
1.51544 0.047856066 -0.22974856 -1.003009 1.2260992e-06 -4.3842917e-08
1.51544 -0.047855932 0.2297488 -1.003009 -1.8537984e-06 -4.3842917e-08
1.51544 -0.07975993 0.22340788 -0.4937863 0.67542183 -0.5531793
1.51544 0.07976007 0.38292786 -0.66538817 -0.47618955 0.58011115
0.38292778 0.079760015 -0.3829277 6.3854166e-08 -0.58044755 -0.81799
1.51544 0.07976007 0.22340788 -0.4939529 -0.674907 -0.55365866
1.51544 -0.07975993 0.38292786 -0.6653706 0.4761999 0.58012295
0.38292775 -0.079759985 0.22340779 -6.199237e-08 0.69582385 0.7223962
0.38292772 -0.079759985 0.3829278 -6.24909e-08 0.5804467 0.81799054
0.3829278 -0.079759985 -0.3829277 1.3109827e-08 0.58044755 -0.81799
0.38292775 -0.079759985 -0.22340773 0.0009087749 0.6956776 -0.7225364
1.51544 0.22107083 -0.09157232 -0.00022181845 -0.9266951 0.38374874
1.5553199 0.16919495 -0.16919473 -0.66792184 -0.52910644 0.52910656
1.51544 0.09157252 -0.22107065 -0.00022171695 -0.38314784 0.9269438
1.5553199 6.798519e-08 -0.23927984 6.0274502e-05 -1.15227795e-05 1.003009
1.5553199 -0.09157239 -0.22107062 0.00045504156 0.38384092 0.92665684
1.5553199 -0.1691948 -0.16919473 -0.00012552527 0.7092108 0.7092581
1.5553199 -0.22107069 -0.09157232 0.00022341618 0.9266526 0.38385144
1.51544 -0.23927993 1.3248396e-07 -4.3858048e-08 1.003009 7.4216695e-07
1.5553199 -0.22107069 0.09157259 -0.6674255 0.6917482 -0.28645164
1.5553199 6.798519e-08 0.23928013 2.8703798e-05 5.0494968e-05 -1.003009
1.51544 6.624199e-08 0.2392801 -0.7560573 1.5095398e-05 -0.6590937
1.51544 0.16919494 0.169195 7.7775184e-08 -0.70916677 -0.7093021
1.51544 0.22107083 0.09157259 6.638031e-08 -0.9266527 -0.38385108
1.5553199 0.23928006 1.3597038e-07 4.3603105e-08 -1.003009 8.45851e-05
2.3130398 0.28199154 -0.28199127 0.6677527 0.52921206 -0.5292143
2.3130398 0.15262085 -0.36845115 0.6677125 0.2864313 -0.69147956
1.51544 0.1526208 -0.3684512 6.2425734e-08 0.38381317 -0.9266684
2.3130398 1.0110619e-07 -0.39879978 0.6677466 -1.5691629e-06 -0.748426
2.3130398 -0.15262064 -0.36845115 0.66771275 -0.28643417 -0.69147825
1.51544 -0.36845127 -0.15262063 7.434222e-08 -0.9266529 -0.3838507
1.51544 -0.2819914 -0.28199133 9.066656e-08 -0.70923364 -0.7092352
2.3130398 -0.36845124 -0.15262054 0.6677119 -0.6914804 -0.2864311
2.3130398 -0.39879987 2.0221238e-07 0.6677463 -0.7484263 1.5176937e-06
2.3130398 -0.36845124 0.15262096 0.6677118 -0.6914792 0.2864339
2.3130398 -0.28199136 0.28199163 0.667753 -0.5292116 0.5292146
2.3130398 -0.15262064 0.3684515 0.6677125 -0.28643125 0.6914796
1.51544 -0.15262069 0.36845145 -4.699375e-08 -0.38381323 0.9266684
2.3130398 1.0110619e-07 0.39880013 0.6677464 1.6393026e-06 0.74842614
1.51544 6.624199e-08 0.39880008 -0.6677032 -1.6507917e-06 0.7484648
1.51544 0.1526208 0.36845145 -7.867679e-08 0.38381127 0.92666924
2.3130398 0.28199154 0.28199163 0.66775286 0.5292138 0.5292124
2.23328 0.09157255 0.22107098 0.7560519 -0.25223565 -0.608925
2.23328 0.29476115 0.12209679 0.6677079 -0.6914827 -0.2864347
2.23328 0.16919498 0.16919509 0.75601155 -0.466087 -0.4660863
2.23328 0.3190401 1.9523952e-07 0.6677531 -0.7484201 -1.7349797e-07
2.23328 0.23928009 1.9523952e-07 0.7560232 -0.6591326 4.7904978e-05
2.23328 0.22107087 -0.09157226 1.003009 -7.701348e-08 4.3842917e-08
2.23328 0.16919498 -0.16919467 1.003009 -3.5061674e-08 4.3842917e-08
2.23328 0.22559327 -0.22559296 0.6677489 -0.52921635 0.5292148
2.23328 9.761977e-08 -0.31903982 0.6677429 -1.1435078e-06 0.7484293
2.23328 9.761977e-08 -0.23927978 0.75604045 -4.7142712e-05 0.65911305
2.23328 -0.1220965 -0.29476088 0.66770744 0.28643343 0.69148356
2.23328 -0.16919477 -0.16919467 0.75601196 0.46608588 0.4660869
2.23328 -0.29476097 -0.122096404 0.66770685 0.69148356 0.28643492
2.23328 -0.22107066 -0.09157226 0.75605124 0.6089256 0.25223625
2.23328 -0.29476097 0.12209679 0.66772527 0.6914684 -0.28642836
2.23328 -0.22559306 0.22559337 0.6677399 0.5292217 -0.5292209
2.23328 -0.1220965 0.29476124 0.66771626 0.28643233 -0.6914756
2.23328 -0.09157236 0.22107098 1.003009 4.9769255e-06 4.3842917e-08
2.23328 9.761977e-08 0.31904018 0.6677519 5.540003e-07 -0.7484212
2.23328 9.761977e-08 0.2392802 0.7560242 4.7388643e-05 -0.65913147
2.3130398 -0.22559306 0.22559337 0.7560097 0.46608883 -0.46608746
2.3130398 1.0110619e-07 0.31904018 0.7560184 -4.3133718e-07 -0.65913826
2.3130398 0.1220967 0.29476124 0.7560456 -0.25223914 -0.60893136
2.23328 0.122096695 0.29476124 0.66770726 -0.2864335 -0.6914838
2.23328 0.22559327 0.22559337 0.6677569 -0.52921057 -0.5292107
2.3130398 0.22559327 0.22559337 0.7560107 -0.4660886 -0.46608588
2.23328 0.29476115 -0.122096404 0.6677069 -0.69148386 0.28643417
2.3130398 0.29476115 -0.12209639 0.75604606 -0.60893047 0.25223982
2.23328 0.122096695 -0.29476088 0.6677252 -0.286429 0.6914682
2.3130398 0.1220967 -0.29476088 0.75604564 -0.25223875 0.6089315
2.3130398 1.0110619e-07 -0.31903982 0.7560184 4.974304e-07 0.6591384
2.23328 -0.22559306 -0.22559296 0.66775817 0.5292094 0.5292101
2.3130398 -0.22559306 -0.22559296 0.75600994 0.46608898 0.4660869
2.23328 -0.3190399 1.9523952e-07 0.6677429 0.7484293 6.191553e-07
2.3130398 -0.3190399 2.0221238e-07 0.7560184 0.65913826 -5.4709966e-07
2.3130398 -0.29476097 -0.12209639 0.756046 0.608931 0.25223884
2.3130398 -0.28199136 -0.28199127 0.6677527 -0.5292142 -0.5292123
2.3130398 -0.122096494 -0.29476088 0.7560455 0.25223967 0.6089312
2.3130398 -0.29476097 0.12209681 0.7560459 0.6089307 -0.25224003
2.3130398 -0.122096494 0.29476124 0.75604564 0.25223884 -0.6089314
2.3130398 0.15262085 0.3684515 0.6677125 0.28643426 0.69147825
2.3130398 0.36845142 0.15262096 0.6677158 0.6914765 0.2864311
2.3130398 0.29476115 0.12209681 0.75604594 -0.6089306 -0.25224
2.3130398 0.36845142 -0.15262054 0.667712 0.6914792 -0.2864338
2.3130398 0.39880005 2.0221238e-07 0.6677422 0.7484299 9.433796e-08
2.3130398 0.3190401 2.0221238e-07 0.75601727 -0.6591395 -2.2993147e-07
2.3130398 0.22559327 -0.22559296 0.75601 -0.46608835 0.4660875
2.23328 0.0797601 -0.22340755 0.49392465 -0.67481965 0.55379045
2.23328 0.0797601 -0.07975981 0.579103 -0.57907104 0.57908845
1.5553199 0.22340783 -0.079759866 -0.49391463 -0.5537792 0.6748362
2.23328 0.22340786 -0.07975981 0.49430922 -0.5536433 0.67465883
2.23328 -0.16921073 0.16921104 1.003009 3.867413e-08 4.3842917e-08
2.23328 -0.22105475 0.09156467 1.003009 4.3842917e-08 4.3842917e-08
2.23328 -0.22340766 0.07976019 0.4939208 0.5537827 -0.6748288
2.23328 -0.0797599 0.07976019 0.5791026 0.579072 -0.579088
2.23328 0.09156457 -0.22105464 1.003009 1.6834296e-05 4.3842917e-08
1.5553199 -0.09156441 0.221055 -0.6676563 0.28639725 -0.69154805
1.5553199 -0.07975993 0.07976013 -0.57910234 0.5790876 -0.57907254
1.5553199 -0.22340769 0.07976013 -0.4943031 0.55363965 -0.6746662
1.5553199 -0.16921076 0.16921099 -0.6676566 0.52922577 -0.529322
1.5553199 0.09156454 -0.2210547 -0.6679259 -0.28631827 0.6913204
1.5553199 0.07976007 -0.22340761 -0.49391797 -0.6748334 0.55377966
1.5553199 0.07976007 -0.079759866 -0.57910293 -0.5790879 0.57907176
1.5553199 0.22105493 -0.09156434 -0.66792744 -0.691322 0.28631052
0.39879996 0.16919489 -0.16919485 0.66770464 -0.5292435 0.5292435
0.39879996 -0.09157244 -0.22107074 0.6678162 0.2854169 0.6917988
0.39879996 -0.22107075 0.091572486 0.66772616 0.69150174 -0.28634614
0.39879996 1.74321e-08 3.48642e-08 1.003009 4.1194696e-08 4.3842917e-08
0.39879996 -0.09157244 0.2210708 0.66776115 0.28600496 -0.6916092
0.39879996 1.74321e-08 0.23928002 0.993659 4.343422e-08 0.13663349
0.39879996 0.09157247 0.2210708 0.66773885 -0.28608826 -0.69159627
0.39879996 0.16919489 0.1691949 0.66773605 -0.5292204 -0.5292273
0.39879996 0.22107078 0.091572486 0.66770595 -0.6914841 -0.28643605
0.38292775 0.079760015 -0.22340773 6.199237e-08 -0.695828 -0.72239196
0.39879996 0.079760015 -0.22340773 -0.05650467 -0.9806788 -0.20273942
0.39879996 1.74321e-08 -0.23927996 0.9936598 -1.6588705e-05 -0.13662763
0.39879996 -0.079759985 0.22340779 3.102233e-05 -0.98381704 -0.19527157
0.39879996 0.079760015 0.22340779 -0.0138381 0.98236996 -0.20195232
0.38292775 0.079760015 0.22340779 -1.1615562e-09 -0.69582325 0.7223966
2.23328 -0.09157236 -0.22107056 0.75605184 0.2522355 0.6089251
1.5553199 0.09157252 0.22107092 0.00022394057 -0.38385114 -0.9266527
1.5553199 0.16919495 0.16919503 2.9227627e-05 -0.7092116 -0.7092573
1.5553199 0.22107084 0.09157259 6.630656e-08 -0.9266543 -0.38384742
2.23328 0.22107087 0.09157265 0.75605184 -0.6089249 -0.25223625
1.5553199 -0.23927991 1.3597038e-07 5.6555462e-05 1.003009 -3.593547e-05
2.23328 -0.23927988 1.9523952e-07 0.75603956 0.6591141 -4.7818412e-05
1.5553199 -0.07975993 0.22340791 -0.4939265 0.67481923 -0.5537893
2.23328 -0.0797599 0.22340797 0.49429968 0.67467195 -0.5536358
3 14 48 0
3 18 48 49
3 18 1 20
3 3 1 52
3 3 53 2
3 4 53 54
3 4 56 5
3 23 56 57
3 23 6 26
3 7 6 59
3 7 8 9
3 10 8 11
3 10 44 15
3 12 44 13
3 12 45 17
3 14 45 47
3 15 28 10
3 12 16 15
3 12 42 41
3 14 42 17
3 0 40 14
3 18 38 0
3 20 19 18
3 3 21 20
3 3 33 35
3 4 33 2
3 5 22 4
3 5 25 32
3 26 25 23
3 7 24 26
3 9 31 7
3 10 27 9
3 124 27 28
3 29 27 123
3 29 24 31
3 128 24 30
3 128 32 25
3 130 32 131
3 130 33 22
3 34 33 132
3 34 21 35
3 36 21 114
3 36 38 19
3 118 38 37
3 118 42 40
3 120 42 39
3 120 16 41
3 124 16 43
3 93 44 11
3 92 13 44
3 96 45 13
3 95 47 45
3 46 48 47
3 81 49 48
3 50 1 49
3 82 52 1
3 51 53 52
3 84 54 53
3 55 56 54
3 86 57 56
3 88 6 57
3 89 59 6
3 58 8 59
3 60 11 8
3 79 99 80
3 135 99 61
3 135 63 64
3 65 63 62
3 65 68 66
3 67 68 136
3 67 70 104
3 71 70 139
3 71 106 69
3 142 106 72
3 142 73 107
3 75 73 74
3 75 111 109
3 77 111 76
3 77 112 78
3 79 112 143
3 81 101 102
3 103 81 102
3 82 103 83
3 105 82 83
3 84 105 85
3 87 84 85
3 86 87 108
3 110 86 108
3 89 110 91
3 90 89 91
3 60 90 113
3 97 60 113
3 92 97 98
3 100 92 98
3 95 100 94
3 101 95 94
3 80 98 97
3 99 100 98
3 64 94 100
3 63 101 94
3 101 68 102
3 68 103 102
3 104 83 103
3 70 105 83
3 69 85 105
3 106 87 85
3 107 108 87
3 73 110 108
3 109 91 110
3 111 90 91
3 78 113 90
3 112 97 113
3 154 114 34
3 115 114 153
3 115 37 36
3 117 37 116
3 117 39 118
3 119 39 159
3 119 43 120
3 122 43 121
3 122 123 124
3 146 123 125
3 146 30 29
3 127 30 126
3 127 131 128
3 129 131 150
3 129 132 130
3 154 132 133
3 144 61 79
3 158 61 134
3 158 62 135
3 156 62 157
3 156 136 65
3 137 136 155
3 137 139 67
3 140 139 138
3 140 72 71
3 152 72 141
3 152 74 142
3 149 74 151
3 149 76 75
3 147 76 148
3 147 143 77
3 144 143 145
3 145 122 144
3 147 125 145
3 148 146 147
3 149 126 148
3 151 127 149
3 151 129 150
3 141 129 152
3 140 133 141
3 138 154 140
3 137 153 138
3 137 116 115
3 156 116 155
3 157 117 156
3 158 159 157
3 134 119 158
3 144 121 134
3 161 162 160
3 163 160 164
3 180 164 234
3 182 238 165
3 165 237 166
3 167 166 237
3 169 167 168
3 173 168 171
3 172 171 244
3 175 176 174
3 174 177 179
3 162 179 177
3 211 234 181
3 216 184 182
3 215 244 213
3 185 247 175
3 187 199 186
3 313 218 187
3 313 220 188
3 190 201 314
3 192 191 190
3 192 225 193
3 194 196 225
3 197 196 315
3 197 204 195
3 320 198 319
3 321 229 320
3 186 230 321
3 189 200 220
3 201 203 314
3 317 209 204
3 198 326 319
3 181 205 183
3 183 206 181
3 206 207 181
3 181 207 200
3 213 208 209
3 213 246 210
3 213 228 208
3 210 212 228
3 181 322 211
3 327 210 185
3 209 215 213
3 217 183 216
3 199 312 231
3 218 219 312
3 219 220 309
3 309 206 221
3 221 201 222
3 201 223 222
3 223 193 224
3 193 333 224
3 333 196 226
3 196 308 226
3 308 204 305
3 305 228 227
3 227 198 329
3 198 330 329
3 229 331 330
3 230 231 331
3 292 162 293
3 232 160 292
3 233 164 232
3 235 234 233
3 236 205 235
3 285 184 236
3 239 238 285
3 240 237 239
3 241 167 240
3 242 168 241
3 243 171 242
3 245 244 243
3 289 246 245
3 248 247 289
3 290 176 248
3 290 162 177
3 267 249 272
3 273 249 251
3 273 332 250
3 252 332 253
3 252 254 275
3 256 254 255
3 277 255 304
3 277 258 257
3 257 328 259
3 280 328 260
3 280 262 261
3 282 262 334
3 263 334 301
3 263 300 264
3 265 300 266
3 267 266 268
3 263 283 282
3 264 287 263
3 265 269 264
3 267 288 265
3 272 270 267
3 273 271 272
3 273 291 274
3 250 294 291
3 275 294 252
3 256 276 275
3 277 295 256
3 257 278 277
3 259 279 257
3 280 286 259
3 261 281 280
3 282 284 261
3 235 286 236
3 285 286 281
3 285 284 239
3 240 284 283
3 240 287 241
3 242 287 269
3 242 288 243
3 245 288 270
3 245 271 289
3 248 271 274
3 248 291 290
3 293 291 294
3 293 276 292
3 232 276 295
3 232 278 233
3 235 278 279
3 297 310 296
3 311 299 298
3 303 335 336
3 306 302 307
3 303 266 300
3 301 303 300
3 297 304 255
3 254 297 255
3 305 306 308
3 306 226 308
3 309 311 219
3 311 312 219
3 316 187 186
3 316 313 187
3 316 189 313
3 316 324 189
3 316 314 324
3 316 190 314
3 316 192 190
3 316 194 192
3 316 315 194
3 316 197 315
3 316 317 197
3 316 318 317
3 316 319 318
3 316 320 319
3 316 321 320
3 316 186 321
3 324 322 323
3 217 324 203
3 318 214 325
3 326 327 318
3 222 258 221
3 223 328 222
3 224 260 223
3 333 262 224
3 227 249 268
3 330 249 329
3 331 251 330
3 231 332 331
3 307 334 333
3 298 253 231
3 221 296 310
3 227 336 335
3 14 47 48
3 18 0 48
3 18 49 1
3 3 20 1
3 3 52 53
3 4 2 53
3 4 54 56
3 23 5 56
3 23 57 6
3 7 26 6
3 7 59 8
3 10 9 8
3 10 11 44
3 12 15 44
3 12 13 45
3 14 17 45
3 15 16 28
3 12 41 16
3 12 17 42
3 14 40 42
3 0 38 40
3 18 19 38
3 20 21 19
3 3 35 21
3 3 2 33
3 4 22 33
3 5 32 22
3 5 23 25
3 26 24 25
3 7 31 24
3 9 27 31
3 10 28 27
3 124 123 27
3 29 31 27
3 29 30 24
3 128 25 24
3 128 131 32
3 130 22 32
3 130 132 33
3 34 35 33
3 34 114 21
3 36 19 21
3 36 37 38
3 118 40 38
3 118 39 42
3 120 41 42
3 120 43 16
3 124 28 16
3 93 92 44
3 92 96 13
3 96 95 45
3 95 46 47
3 46 81 48
3 81 50 49
3 50 82 1
3 82 51 52
3 51 84 53
3 84 55 54
3 55 86 56
3 86 88 57
3 88 89 6
3 89 58 59
3 58 60 8
3 60 93 11
3 79 61 99
3 135 64 99
3 135 62 63
3 65 66 63
3 65 136 68
3 67 104 68
3 67 139 70
3 71 69 70
3 71 72 106
3 142 107 106
3 142 74 73
3 75 109 73
3 75 76 111
3 77 78 111
3 77 143 112
3 79 80 112
3 81 46 101
3 103 50 81
3 82 50 103
3 105 51 82
3 84 51 105
3 87 55 84
3 86 55 87
3 110 88 86
3 89 88 110
3 90 58 89
3 60 58 90
3 97 93 60
3 92 93 97
3 100 96 92
3 95 96 100
3 101 46 95
3 80 99 98
3 99 64 100
3 64 63 94
3 63 66 101
3 101 66 68
3 68 104 103
3 104 70 83
3 70 69 105
3 69 106 85
3 106 107 87
3 107 73 108
3 73 109 110
3 109 111 91
3 111 78 90
3 78 112 113
3 112 80 97
3 154 153 114
3 115 36 114
3 115 116 37
3 117 118 37
3 117 159 39
3 119 120 39
3 119 121 43
3 122 124 43
3 122 125 123
3 146 29 123
3 146 126 30
3 127 128 30
3 127 150 131
3 129 130 131
3 129 133 132
3 154 34 132
3 144 134 61
3 158 135 61
3 158 157 62
3 156 65 62
3 156 155 136
3 137 67 136
3 137 138 139
3 140 71 139
3 140 141 72
3 152 142 72
3 152 151 74
3 149 75 74
3 149 148 76
3 147 77 76
3 147 145 143
3 144 79 143
3 145 125 122
3 147 146 125
3 148 126 146
3 149 127 126
3 151 150 127
3 151 152 129
3 141 133 129
3 140 154 133
3 138 153 154
3 137 115 153
3 137 155 116
3 156 117 116
3 157 159 117
3 158 119 159
3 134 121 119
3 144 122 121
3 161 178 162
3 163 161 160
3 180 163 164
3 182 184 238
3 165 238 237
3 167 170 166
3 169 170 167
3 173 169 168
3 172 173 171
3 175 247 176
3 174 176 177
3 162 178 179
3 211 180 234
3 216 183 184
3 215 172 244
3 185 210 247
3 187 218 199
3 313 188 218
3 313 189 220
3 190 191 201
3 192 193 191
3 192 194 225
3 194 315 196
3 197 195 196
3 197 317 204
3 320 229 198
3 321 230 229
3 186 199 230
3 189 323 200
3 201 202 203
3 317 325 209
3 198 212 326
3 183 202 206
3 213 210 228
3 181 200 322
3 327 212 210
3 209 214 215
3 217 202 183
3 199 218 312
3 218 188 219
3 219 188 220
3 309 220 206
3 221 206 201
3 201 191 223
3 223 191 193
3 193 225 333
3 333 225 196
3 196 195 308
3 308 195 204
3 305 204 228
3 227 228 198
3 198 229 330
3 229 230 331
3 230 199 231
3 292 160 162
3 232 164 160
3 233 234 164
3 235 205 234
3 236 184 205
3 285 238 184
3 239 237 238
3 240 167 237
3 241 168 167
3 242 171 168
3 243 244 171
3 245 246 244
3 289 247 246
3 248 176 247
3 290 177 176
3 290 293 162
3 267 268 249
3 273 272 249
3 273 251 332
3 252 250 332
3 252 253 254
3 256 275 254
3 277 256 255
3 277 304 258
3 257 258 328
3 280 259 328
3 280 260 262
3 282 261 262
3 263 282 334
3 263 301 300
3 265 264 300
3 267 265 266
3 263 287 283
3 264 269 287
3 265 288 269
3 267 270 288
3 272 271 270
3 273 274 271
3 273 250 291
3 250 252 294
3 275 276 294
3 256 295 276
3 277 278 295
3 257 279 278
3 259 286 279
3 280 281 286
3 261 284 281
3 282 283 284
3 235 279 286
3 285 236 286
3 285 281 284
3 240 239 284
3 240 283 287
3 242 241 287
3 242 269 288
3 245 243 288
3 245 270 271
3 248 289 271
3 248 274 291
3 293 290 291
3 293 294 276
3 232 292 276
3 232 295 278
3 235 233 278
3 297 311 310
3 311 297 299
3 303 306 335
3 306 303 302
3 303 336 266
3 301 302 303
3 297 296 304
3 254 299 297
3 305 335 306
3 306 307 226
3 309 310 311
3 311 298 312
3 222 328 258
3 223 260 328
3 224 262 260
3 333 334 262
3 227 329 249
3 330 251 249
3 331 332 251
3 231 253 332
3 307 302 334
3 298 299 253
3 221 258 296
3 227 268 336
