ply
format ascii 1.0
comment Created in Blender version 4.1.0
element vertex 315
property float x
property float y
property float z
property float nx
property float ny
property float nz
element face 594
property list uchar uint vertex_indices
end_header
4.386 0.23928018 -0.31903982 2.674602e-07 -0.65913624 -0.75602007
4.294428 0.22107096 -0.31903982 0.2522363 -0.6089244 -0.75605226
4.294428 0.22107096 0.31904018 0.2522359 -0.60892457 0.75605226
4.14672 1.812589e-07 0.31904018 0.65913624 -3.3457735e-07 0.7560201
4.1467204 1.812589e-07 -0.31903982 0.6591363 3.8741942e-07 -0.75602007
4.1649294 -0.09157227 0.31904018 0.60892457 0.25223577 0.75605214
4.294428 -0.22107057 -0.31903982 0.25223586 0.6089246 -0.75605226
4.4775724 -0.22107057 -0.31903982 -0.25223628 0.6089244 -0.75605226
4.4775724 -0.22107057 0.31904018 -0.25223595 0.60892457 0.75605226
4.555195 -0.16919468 0.31904018 -0.46608606 0.4660864 0.7560121
4.607071 -0.091572255 0.31904018 -0.6089245 0.2522363 0.7560522
4.607071 -0.091572255 -0.31903982 -0.6089246 0.25223574 -0.75605214
4.6252804 2.0217742e-07 -0.31903982 -0.65913624 -3.937947e-07 -0.7560201
4.607071 0.09157266 0.31904018 -0.6089246 -0.25223577 0.75605226
4.4775724 0.22107096 0.31904018 -0.25223628 -0.6089244 0.75605226
4.386 0.23928018 0.31904018 -2.0824285e-07 -0.6591363 0.7560201
4.0669603 1.7777248e-07 0.31904018 0.7484224 3.271458e-08 0.6677509
4.091239 -0.12209642 0.31904018 0.6914822 0.28643414 0.66770864
4.2168055 -0.16919468 0.31904018 0.46608624 0.46608603 0.7560122
4.386 -0.23927979 0.31904018 1.5489996e-07 0.6591363 0.7560201
4.294428 -0.22107057 0.31904018 0.25223625 0.60892445 0.75605226
4.2639036 -0.29476088 0.31904018 0.2864348 0.6914831 0.6677074
4.386 -0.31903982 0.31904018 5.0272234e-07 0.7484212 0.66775185
4.6115932 -0.22559296 0.31904018 -0.5292094 0.5292102 0.6677581
4.70504 2.0566384e-07 0.31904018 -0.7484214 5.717243e-07 0.6677518
4.62528 2.0217742e-07 0.31904018 -0.6591363 3.2820208e-07 0.75602007
4.6807613 -0.12209639 0.31904018 -0.69148344 0.28643507 0.667707
4.555195 0.16919507 0.31904018 -0.4660863 -0.4660861 0.7560121
4.6807613 0.12209681 0.31904018 -0.6914836 -0.28643417 0.667707
4.6115932 0.22559337 0.31904018 -0.5292102 -0.5292093 0.66775817
4.2168055 0.16919507 0.31904018 0.466086 -0.46608633 0.7560122
4.160407 0.22559334 0.31904018 0.5292094 -0.52921027 0.6677581
4.1649294 0.09157264 0.31904018 0.6089245 -0.2522363 0.75605214
4.386 0.31904018 0.31904018 -5.683379e-07 -0.7484213 0.6677518
4.386 0.31904018 0.39880013 5.0752425e-07 -0.6591383 0.75601834
4.2639036 0.29476124 0.31904018 0.28643402 -0.69148344 0.6677074
4.160407 0.22559334 0.39880013 0.46608734 -0.46608737 0.7560106
4.091239 0.12209678 0.31904018 0.69148326 -0.2864349 0.6677073
4.091239 0.12209678 0.39880013 0.60893154 -0.2522383 0.75604576
4.091239 -0.12209642 0.39880013 0.60893244 0.25223938 0.7560446
4.160407 -0.22559299 0.31904018 0.52921015 0.5292094 0.6677581
4.2639036 -0.29476088 0.39880013 0.2522384 0.6089316 0.75604564
4.5080967 -0.29476088 0.31904018 -0.28643408 0.69148344 0.6677074
4.6115932 -0.22559296 0.39880013 -0.46608746 0.4660873 0.75601065
4.70504 2.0566384e-07 0.39880013 -0.6591384 -4.894226e-07 0.7560183
4.6115932 0.22559337 0.39880013 -0.46608683 -0.46608797 0.75601065
4.5080967 0.29476124 0.39880013 -0.25223848 -0.60893166 0.75604564
4.5080967 0.29476124 0.31904018 -0.28643486 -0.6914831 0.6677074
4.091239 0.12209678 -0.31903982 0.6914837 -0.2864341 -0.667707
4.1649294 0.09157264 -0.31903982 0.6089247 -0.25223574 -0.75605214
4.160407 0.22559334 -0.31903982 0.52921027 -0.5292093 -0.66775817
4.2168055 0.16919507 -0.31903982 0.46608642 -0.46608603 -0.7560121
4.2639036 0.29476124 -0.31903982 0.28643492 -0.6914831 -0.6677074
4.4775724 0.22107096 -0.31903982 -0.2522358 -0.60892457 -0.75605226
4.607071 0.09157266 -0.31903982 -0.6089245 -0.25223637 -0.75605214
4.555195 0.16919507 -0.31903982 -0.46608594 -0.4660864 -0.7560122
4.6115932 0.22559337 -0.31903982 -0.5292093 -0.52921027 -0.6677581
4.6807613 -0.12209639 -0.31903982 -0.69148225 0.28643408 -0.66770864
4.6115932 -0.22559296 -0.31903982 -0.5292102 0.5292094 -0.6677581
4.5080967 -0.29476088 -0.31903982 -0.28643486 0.6914831 -0.6677074
4.555195 -0.16919468 -0.31903982 -0.46608636 0.46608603 -0.7560122
4.386 -0.23927979 -0.31903982 -2.141173e-07 0.6591363 -0.7560201
4.2168055 -0.16919468 -0.31903982 0.46608606 0.46608648 -0.7560121
4.160407 -0.22559299 -0.31903982 0.5292093 0.5292102 -0.6677581
4.1649294 -0.09157227 -0.31903982 0.60892445 0.25223637 -0.7560522
4.091239 -0.12209642 -0.31903982 0.6914834 0.28643513 -0.667707
4.386 -0.31903982 -0.39879978 4.8411755e-07 0.6591382 -0.7560184
4.2639036 -0.29476088 -0.31903982 0.28643402 0.69148344 -0.6677074
4.160407 -0.22559299 -0.39879978 0.4660874 0.46608737 -0.75601065
4.091239 -0.12209642 -0.39879978 0.60893214 0.25223848 -0.75604516
4.0669603 1.7777248e-07 -0.31903982 0.7484214 6.3715333e-07 -0.6677518
4.0669603 1.7777248e-07 -0.39879978 0.6591384 -4.3179887e-07 -0.7560183
4.091239 0.12209678 -0.39879978 0.6089317 -0.2522395 -0.75604534
4.386 0.31904018 -0.31903982 6.3376694e-07 -0.7484213 -0.6677518
4.386 0.31904018 -0.39879978 -4.4990057e-07 -0.65913826 -0.75601834
4.5080967 0.29476124 -0.31903982 -0.28643396 -0.69148344 -0.6677074
4.5080967 0.29476124 -0.39879978 -0.25223944 -0.6089312 -0.7560456
4.6115932 0.22559337 -0.39879978 -0.46608728 -0.46608743 -0.7560106
4.6807613 0.12209681 -0.31903982 -0.6914832 -0.28643495 -0.6677073
4.70504 2.0566384e-07 -0.31903982 -0.7484224 -3.271458e-08 -0.6677509
4.386 -0.31903982 -0.31903982 -5.681514e-07 0.7484212 -0.66775185
4.160407 -0.22559299 0.39880013 0.46608672 0.46608797 0.7560106
4.386 -0.31903982 0.39880013 -5.417412e-07 0.6591382 0.7560184
4.2333794 -0.36845115 0.39880013 -0.2864343 -0.6914783 0.6677126
4.5080967 -0.29476088 0.39880013 -0.25223956 0.60893124 0.7560456
4.386 -0.39879978 0.39880013 -1.6324728e-06 -0.74842614 0.6677465
4.6679916 -0.28199127 0.39880013 0.52921593 -0.5292157 0.66774863
4.7544513 -0.15262054 0.3988002 0.6914752 -0.28643143 0.6677171
4.6807613 -0.12209639 0.39880013 -0.6089322 0.25223842 0.75604516
4.7544513 0.15262096 0.3988002 0.691479 0.28643152 0.66771305
4.6807613 0.12209681 0.39880013 -0.60893166 -0.25223956 0.75604534
4.2639036 0.29476124 0.39880013 0.2522395 -0.6089312 0.7560456
3.9872003 1.7428606e-07 0.39880008 -0.74842626 1.3933554e-06 0.6677463
4.0669603 1.7777248e-07 0.39880013 0.6591368 2.8811785e-08 0.7560196
4.017549 0.15262093 -0.39879984 -0.6914791 0.28643152 -0.66771305
3.9872003 1.7428606e-07 -0.39879984 -0.748426 -1.4660242e-06 -0.66774666
4.160407 0.22559334 -0.39879978 0.4660869 -0.4660879 -0.75601065
4.2639036 0.29476124 -0.39879978 0.25223854 -0.60893166 -0.75604564
4.386 0.39880013 -0.39879978 -1.6422406e-06 0.748426 -0.66774654
4.70504 2.0566384e-07 -0.39879978 -0.6591368 -2.8811785e-08 -0.7560196
4.6807613 0.12209681 -0.39879978 -0.6089315 -0.25223836 -0.75604576
4.6807613 -0.12209639 -0.39879978 -0.6089325 0.25223932 -0.7560446
4.5080967 -0.29476088 -0.39879978 -0.25223845 0.6089316 -0.75604564
4.6115932 -0.22559296 -0.39879978 -0.46608678 0.4660879 -0.7560106
4.386 -0.39879978 -0.39879978 1.7006168e-06 -0.7484262 -0.6677464
4.538621 -0.36845115 -0.39879978 0.28643432 -0.69147825 -0.6677125
4.2333794 -0.36845115 -0.39879978 -0.28643125 -0.6914796 -0.66771257
4.2639036 -0.29476088 -0.39879978 0.2522395 0.60893124 -0.7560456
4.1040087 -0.28199127 -0.39879978 -0.5292158 -0.52921575 -0.6677486
4.017549 -0.15262057 -0.39879984 -0.69147515 -0.28643155 -0.6677171
4.2333794 0.3684515 0.39880013 -0.2864313 0.6914796 0.6677125
4.2333794 0.3684515 -0.39879978 -0.28643435 0.69147825 -0.6677126
4.1040087 0.28199163 -0.39879978 -0.52921456 0.5292122 -0.66775256
4.1040087 0.28199163 0.39880013 -0.5292123 0.5292144 0.66775256
4.0175486 0.15262093 0.39880008 -0.6914783 0.28643423 0.6677126
4.0175486 -0.15262057 0.39880008 -0.6914821 -0.28643432 0.66770864
4.1040087 -0.28199127 0.39880013 -0.5292108 -0.5292107 0.6677566
4.538621 -0.36845115 0.39880013 0.2864313 -0.6914796 0.6677125
4.6679916 -0.28199127 -0.39879978 0.52921087 -0.5292106 -0.6677566
4.7544518 -0.15262054 -0.39879972 0.6914822 -0.2864342 -0.66770864
4.7848 2.0915026e-07 -0.39879972 0.74842626 1.4587849e-06 -0.66774625
4.7848 2.0915026e-07 0.3988002 0.748426 -1.4005949e-06 0.66774666
4.7544518 0.15262096 -0.39879972 0.69147825 0.28643423 -0.6677126
4.6679916 0.28199163 0.39880013 0.5292145 0.5292121 0.66775256
4.6679916 0.28199163 -0.39879978 0.52921224 0.5292143 -0.66775256
4.538621 0.3684515 -0.39879978 0.28643128 0.6914796 -0.66771257
4.386 0.39880013 0.39880013 1.5740968e-06 0.74842614 0.66774654
4.538621 0.3684515 0.39880013 0.2864343 0.69147825 0.6677126
3.9872003 0.13735886 0.3316063 -0.6677088 0.2864341 0.69148225
4.0760255 0.13735886 0.33160636 -2.6188945e-07 0.44638532 0.89820224
4.151319 0.25379246 0.25379246 -2.739765e-08 0.7475678 0.66870725
4.2016387 0.33160636 0.13735884 -5.894284e-08 0.93846923 0.35398102
4.0760255 -0.1373585 0.33160636 -3.3210233e-07 -0.44638547 0.89820206
3.9872003 -0.1373585 0.3316063 -0.6677087 -0.2864343 0.6914821
3.9872003 -0.25379214 0.2537924 -0.6677561 -0.52921075 0.5292115
4.151319 -0.2537921 0.25379246 -1.3440042e-07 -0.74756783 0.66870725
4.2016387 -0.331606 0.13735884 2.3100744e-08 -0.9384692 0.35398102
4.2193017 -0.3589198 1.7714493e-07 4.3842917e-08 -1.003009 2.1086057e-08
4.0760255 -0.1373585 -0.331606 2.5774807e-07 -0.44638544 -0.89820206
4.151319 -0.2537921 -0.2537921 1.201469e-07 -0.7475678 -0.6687074
3.9872003 -0.33160603 -0.13735852 -0.6676995 -0.6914883 -0.28644055
3.9872003 -0.25379214 -0.25379217 -0.66775596 -0.5292107 -0.52921164
4.2016387 -0.331606 -0.13735852 6.2062156e-08 -0.9384691 -0.35398114
4.0760255 0.13735886 -0.331606 2.1872842e-07 0.4463855 -0.89820206
3.9872003 0.13735886 -0.33160606 -0.6677085 0.28643417 -0.69148225
4.151319 0.25379246 -0.2537921 5.479245e-08 0.7475678 -0.6687074
3.9872003 0.25379243 -0.25379217 -0.66775596 0.5292108 -0.5292117
3.9872003 0.33160633 -0.13735852 -0.66769964 0.6914883 -0.28644055
4.2016387 0.33160636 -0.13735852 -1.9981423e-08 0.9384692 -0.3539812
4.2193017 0.35892016 1.7714493e-07 -4.3842917e-08 1.003009 2.1086057e-08
3.9872003 -0.13735852 -0.33160606 -0.6677085 -0.28643438 -0.69148225
3.9872003 -0.09157228 -0.2210706 -1.003009 1.4563039e-08 -8.802898e-08
3.9872003 -0.1691947 -0.16919471 -1.003009 -1.8591186e-07 -4.3842917e-08
3.9872003 -0.22107059 -0.09157229 -1.003009 4.1221043e-08 -4.3842917e-08
3.9872003 -0.33160603 0.13735886 -0.66769964 -0.6914883 0.28644046
3.9872003 -0.22107059 0.09157262 -1.003009 -5.1151506e-08 -4.3842917e-08
3.9872003 -0.2392798 1.5685396e-07 -1.003009 -1.1322954e-07 -4.3842917e-08
3.9872003 -0.35891983 1.5685396e-07 -0.6677468 -0.74842584 -3.6426925e-08
3.9872003 -0.09157228 0.22107093 -1.003009 1.06593774e-07 -8.8029e-08
3.9872003 -0.1691947 0.16919504 -1.003009 -4.719513e-07 -4.3842917e-08
3.9872003 1.7428606e-07 0.3589201 -0.9302043 -8.747074e-08 0.37516263
3.9872003 0.25379246 0.25379243 -0.66775596 0.52921087 0.52921164
3.9872003 0.16919506 0.16919504 -1.003009 1.5887997e-07 -4.3842917e-08
3.9872003 0.33160633 0.13735886 -0.66769964 0.6914884 0.28644037
3.9872003 0.22107095 0.09157262 -1.003009 -9.3688115e-08 -4.3842917e-08
3.9872003 0.35892013 1.5685396e-07 -0.6677469 0.7484258 -3.6426925e-08
3.9872003 0.23928016 1.5685396e-07 -1.003009 -4.3843848e-08 -4.3842917e-08
3.9872003 1.7428606e-07 -0.35891986 -0.93020403 -9.7271766e-08 -0.37516314
3.9872003 0.19940016 1.5685396e-07 -0.75602406 0.6591316 -2.0603868e-06
3.9872003 0.22106698 -0.09156829 -1.003009 -3.0156156e-07 -4.3842917e-08
3.9872003 0.18422584 -0.07631021 -0.7560527 0.60892314 -0.25223777
3.9872003 0.16919506 -0.16919471 -1.003009 2.542239e-07 -4.3842917e-08
3.9872003 0.091568634 -0.22106664 -1.003009 -2.4508307e-07 -8.802873e-08
3.9872003 0.1409959 -0.14099556 -0.75601596 0.466082 -0.4660842
3.9872003 1.7428606e-07 -0.23927982 -1.003009 3.8314525e-09 -1.8395913e-07
3.9872003 1.7428606e-07 -0.19939981 -0.7560241 -1.891442e-06 -0.6591317
3.9872003 -0.14099555 -0.14099556 -0.7560205 -0.4660798 -0.46607906
3.9872003 -0.076310195 0.18422583 -0.75605255 -0.2522342 0.6089248
3.9872003 1.7428606e-07 0.19940014 -0.7560241 1.8253484e-06 0.6591316
3.9872003 1.7428606e-07 0.23928015 -1.003009 -6.7693506e-08 -1.839592e-07
3.9872003 0.091568634 0.22106697 -1.003009 -2.560514e-07 -8.802875e-08
3.9872003 0.1409959 0.14099589 -0.7560159 0.46608484 0.46608138
3.9473202 0.1409959 -0.14099556 0.7560161 0.46608442 -0.4660816
3.9473202 0.18422584 -0.076310225 0.7560525 0.6089249 -0.25223425
3.9872003 0.07631055 -0.1842255 -0.7560526 0.25223398 -0.608925
3.9473202 1.7254284e-07 -0.19939981 0.7560241 1.8923791e-06 -0.6591316
3.9872003 -0.076310195 -0.1842255 -0.7560525 -0.2522374 -0.6089236
3.9872003 -0.18422548 -0.07631021 -0.7560478 -0.6089291 -0.2522379
3.9872003 -0.1993998 1.5685396e-07 -0.75602865 -0.6591264 -2.3705735e-07
3.9872003 -0.18422548 0.07631054 -0.7560479 -0.60892916 0.25223783
3.9473202 -0.1993998 1.5336754e-07 0.7560195 -0.65913695 -2.920908e-07
3.9473202 -0.18422548 0.07631052 0.7560571 -0.6089194 0.25223383
3.9872003 -0.14099555 0.14099589 -0.75601596 -0.46608207 0.46608415
3.9473202 -0.0763102 0.18422583 0.75605255 -0.25223756 0.60892344
3.9872003 0.07631055 0.18422583 -0.7560526 0.25223723 0.6089235
3.9872003 0.18422584 0.07631054 -0.7560526 0.6089248 0.25223413
3.9473202 0.1409959 0.14099589 0.756016 0.466082 0.46608415
3.9473202 0.18422584 0.07631052 0.75605243 0.6089235 0.2522376
3.9473202 0.076310545 0.18422583 0.7560525 0.252234 0.608925
3.9473202 1.7254284e-07 0.19940014 0.7560241 -1.8262854e-06 0.6591317
3.9473202 1.7254284e-07 0.23928015 1.003009 4.3842917e-08 4.3842917e-08
3.9473202 -0.14099555 0.14099589 0.7560161 -0.46608436 0.46608165
3.9473202 -0.22106662 0.091568604 1.003009 4.3836973e-08 4.3842917e-08
3.9473202 -0.22106662 -0.091568306 1.003009 4.3838345e-08 4.3842917e-08
3.9473202 -0.1691947 -0.16919471 1.003009 -5.3146863e-08 4.3842917e-08
3.9473202 -0.18422548 -0.076310225 0.7560572 -0.60891914 -0.2522339
3.9473202 -0.14099555 -0.14099556 0.7560114 -0.46608698 -0.4660865
3.9473202 1.7254284e-07 -0.23927982 1.003009 4.3842913e-08 4.3842917e-08
3.9473202 -0.0763102 -0.1842255 0.7560526 -0.25223395 -0.60892487
3.9473202 0.076310545 -0.1842255 0.75605255 0.25223765 -0.6089234
3.9473202 0.19940016 1.5336754e-07 0.75602406 0.6591317 1.6906204e-06
3.9473202 0.27916014 1.5336754e-07 0.6677153 0.7484538 -1.4919542e-05
3.9473202 0.23928016 1.5336754e-07 1.003009 7.8537155e-08 4.3842917e-08
3.9473202 0.22106698 0.091568604 1.003009 4.384886e-08 4.3842917e-08
3.9473202 0.16919506 0.16919504 1.003009 1.4083267e-07 4.3842917e-08
3.9473202 1.7254284e-07 0.2791601 0.6677195 -1.3100329e-06 0.7484501
3.9473202 0.09156863 0.22106697 1.003009 4.3857234e-08 4.3842917e-08
3.9473202 -0.091568284 0.22106697 1.003009 4.38286e-08 4.3842917e-08
3.9473202 -0.1691947 0.16919504 1.003009 -5.314684e-08 4.3842917e-08
3.9473202 -0.27915984 1.5336754e-07 0.66771543 -0.7484538 -1.4919542e-05
3.9473202 -0.25791174 -0.106830396 0.66772366 -0.6914743 -0.2864184
3.9473202 -0.2392798 1.5336754e-07 1.003009 9.148678e-09 4.3842917e-08
3.9473202 -0.10683037 -0.25791177 0.66772354 -0.28641832 -0.6914744
3.9473202 -0.091568284 -0.22106664 1.003009 4.382869e-08 4.3842917e-08
3.9473202 0.106830716 -0.25791177 0.6677235 0.28641838 -0.6914744
3.9473202 0.09156863 -0.22106664 1.003009 4.3857145e-08 4.3842917e-08
3.9473202 0.16919506 -0.16919471 1.003009 1.408327e-07 4.3842917e-08
3.9473202 0.25791204 -0.106830396 0.66772354 0.6914743 -0.28641838
3.9473202 0.22106698 -0.091568306 1.003009 4.384749e-08 4.3842917e-08
3.9473202 0.19739419 -0.19739385 0.66772014 0.5292338 -0.5292339
3.7878003 0.25791606 -0.1068344 -0.66769695 0.69149363 -0.2864336
3.9473202 1.7254284e-07 -0.27915987 0.66771436 2.9186724e-08 -0.74845463
3.7878003 1.6557001e-07 -0.27915987 -0.6677221 -2.9187062e-08 -0.7484479
3.7878003 -0.10683437 -0.2579158 -0.66769695 -0.28643394 -0.6914935
3.9473202 -0.19739383 -0.19739385 0.66772014 -0.5292338 -0.5292339
3.9473202 -0.25791577 0.10683468 0.6677053 -0.6914844 0.2864365
3.7878003 -0.25791577 0.106834665 -0.6677053 -0.69148546 0.28643402
3.9473202 -0.19739383 0.19739418 0.66772914 -0.5292282 0.52922815
3.9473202 -0.10683436 0.25791603 0.6677053 -0.28643644 0.6914844
3.7878003 0.106834695 0.25791603 -0.66770536 0.28643665 0.6914844
3.7878003 1.6557001e-07 0.2791601 -0.667732 1.2774374e-06 0.748439
3.9473202 0.1068347 0.25791603 0.66770524 0.28643408 0.6914854
3.9473202 0.19739419 0.19739418 0.6677257 0.52922934 0.52923113
3.9473202 0.25791606 0.10683468 0.66770524 0.6914844 0.2864365
3.7878003 0.25791606 0.106834665 -0.6677054 0.69148546 0.28643402
3.7878003 0.27916014 1.3942186e-07 -0.6677287 0.748442 -7.369492e-06
3.7878003 0.19739418 -0.19739388 -0.6677415 0.52922034 -0.5292203
3.7878003 0.106834695 -0.2579158 -0.667697 0.28643388 -0.69149345
3.7878003 -0.19739385 -0.19739388 -0.6677414 -0.52922034 -0.5292203
3.7878003 1.6557001e-07 1.3942186e-07 -1.003009 -4.384292e-08 -4.3842917e-08
3.7878003 -0.25791577 -0.1068344 -0.66769695 -0.69149363 -0.2864336
3.7878003 -0.27915984 1.3942186e-07 -0.6677286 -0.748442 -7.3676824e-06
3.7878003 -0.19739385 0.19739415 -0.6677348 -0.52922463 0.5292245
3.7878003 -0.10683437 0.25791603 -0.6677053 -0.28643417 0.6914854
3.7878003 0.19739418 0.19739415 -0.66773826 0.52922344 0.5292215
1.9932003 0.07976009 -0.07976001 -0.30241978 0.90725493 -0.30241978
3.7878003 0.079760164 -0.079759866 2.7664074e-08 0.7092344 -0.70923436
1.9932003 0.07976009 -0.22341974 -0.042364016 0.74397427 -0.67136776
3.7878003 0.22341989 -0.079759866 -4.2040806e-06 0.63632715 -0.77531594
3.7878003 -0.079759836 -0.079759866 8.772916e-08 -0.70923436 -0.7092344
1.9932003 -0.22341964 -0.07976001 -0.5901447 -0.51452583 -0.62691253
3.7878003 -0.079759836 0.079760134 -2.5725921e-08 -0.7092344 0.70923436
1.9932003 -0.22341964 0.079759985 -0.59014475 -0.5145258 0.62691253
1.9932003 0.07976009 0.079759985 -0.30241987 0.90725493 0.30241978
1.9932003 0.07976009 0.22341971 -0.042370472 0.7439629 0.67137986
3.7878003 0.079760164 0.079760134 -8.772917e-08 0.7092344 0.7092344
3.7878003 0.22341989 0.079760134 -9.014552e-08 0.6363254 0.7753173
3.7878003 0.079760164 -0.22341959 1.0386259e-08 0.7753173 -0.6363255
3.7878003 1.6557001e-07 -0.23927985 -3.1680445e-06 -2.1005812e-06 -1.003009
1.9932003 8.712556e-08 -0.23928 -0.6677239 -5.4011576e-05 -0.7484463
3.7878003 -0.079759836 -0.22341959 -4.1525227e-06 -0.7753159 -0.6363271
3.7878003 -0.22341956 -0.079759866 9.014552e-08 -0.6363255 -0.77531725
3.7878003 -0.23927982 1.3942186e-07 4.3831232e-08 -1.003009 3.0315778e-10
3.7878003 -0.22341956 0.079760134 -3.4516184e-08 -0.6363255 0.7753173
3.7878003 0.079760164 0.22341986 -9.462845e-08 0.7753173 0.63632554
3.7878003 1.6557001e-07 0.23928012 -3.3461738e-06 -2.0908803e-06 1.003009
3.7878003 -0.079759836 0.22341986 -4.2739994e-06 -0.7753159 0.6363271
1.9932003 8.712556e-08 0.23927997 -0.667724 -5.4011576e-05 0.7484463
3.7878003 0.23928015 1.3942186e-07 -3.2895332e-06 1.003009 -2.0790571e-06
1.9932003 0.22341982 0.079759985 -0.5901448 0.5145258 0.62691253
1.9932003 0.07976009 0.03987998 -0.9072542 0.30242088 -0.3024209
1.9932003 -0.07975991 -0.039880015 -0.9072542 -0.30242088 0.30242085
1.9932003 -0.07975991 -0.22340778 -0.042357776 -0.74401474 -0.67132324
1.9932003 -0.2392799 -1.7467045e-08 -0.6677223 -0.7484477 -2.9187072e-08
1.9932003 -0.07975991 -0.07976001 -0.3024197 -0.90725493 -0.30241978
1.9932003 0.22340785 -0.07976001 -0.59015346 0.51447666 -0.62694466
1.9932003 0.23928007 -1.7467045e-08 -0.66770816 0.74846035 -5.3969157e-05
1.5146403 -0.07975993 -0.03988006 -0.08978507 -0.6826771 0.72932684
1.5146403 0.07976007 -0.03988006 -0.08978617 0.6826611 0.7293417
1.9932003 0.07976009 -0.039880015 -0.9072568 0.30242485 0.30240914
1.9932003 -0.07975991 0.03987998 -0.9072568 -0.30242497 -0.3024092
1.9932003 -0.07975991 0.079759985 -0.3024198 -0.90725493 0.3024198
1.9932003 -0.07975991 0.22340775 -0.04236523 -0.74402094 0.67131585
1.5146403 0.07976007 0.35891992 0.57908744 0.5790875 0.5790875
1.5146403 -0.07975993 0.35891992 0.5790998 -0.57907176 0.57909083
1.5146403 0.07976007 -0.35892004 0.5790998 0.57907176 -0.57909083
1.5146403 -0.07975993 -0.35892004 0.57908756 -0.5790875 -0.5790875
1.5146403 -0.07975993 -0.2234078 0.30243286 -0.90725434 -0.3024084
1.1956005 -0.07975995 -0.15952006 -0.719439 -0.6321639 -0.29799882
1.3950002 0.07976006 -0.35892004 -0.29799575 0.6321748 -0.71943074
1.3950002 -0.07975994 -0.35892004 -0.29799566 -0.6321658 -0.7194387
1.1956005 -0.07975995 -0.11964008 -0.6375315 -0.59311926 0.4977851
1.1956005 0.07976005 -0.11964008 -0.6375464 0.59311855 0.49776703
1.5146403 0.07976007 -0.2234078 0.30241662 0.9072545 -0.30242416
1.1956005 0.07976005 -0.15952006 -0.71943223 0.6321685 -0.29800528
1.1956005 -0.07975995 0.15951993 -0.71943223 -0.6321686 0.29800516
1.1956005 -0.07975995 0.1196399 -0.6375463 -0.5931184 -0.4977671
1.5146403 -0.07975993 0.22340772 0.3024248 -0.90725154 0.3024248
1.3950002 -0.07975994 0.35891992 -0.2979958 -0.6321748 0.71943074
1.5146403 -0.07975993 0.039879937 -0.089785986 -0.6826611 -0.7293417
1.5146403 0.07976007 0.22340772 0.302438 0.9072524 0.30240923
1.5146403 0.07976007 0.039879937 -0.08978499 0.6826771 -0.72932684
1.1956005 0.07976005 0.1196399 -0.63753146 0.59311926 -0.4977852
1.1956005 0.07976005 0.15951993 -0.71943915 0.6321637 0.2979988
1.3950002 0.07976006 0.35891992 -0.29799578 0.6321658 0.7194387
3 15 1 0
3 2 51 1
3 30 49 51
3 32 4 49
3 3 64 4
3 5 62 64
3 18 6 62
3 20 61 6
3 19 7 61
3 8 60 7
3 9 11 60
3 10 12 11
3 25 54 12
3 13 55 54
3 27 53 55
3 14 0 53
3 5 16 17
3 40 5 17
3 20 40 21
3 22 20 21
3 8 22 42
3 23 8 42
3 10 23 26
3 24 10 26
3 13 24 28
3 29 13 28
3 14 29 47
3 33 14 47
3 2 33 35
3 31 2 35
3 32 31 37
3 16 32 37
3 34 35 33
3 91 31 35
3 36 37 31
3 38 16 37
3 16 39 17
3 39 40 17
3 81 21 40
3 41 22 21
3 82 42 22
3 84 23 42
3 43 26 23
3 88 24 26
3 44 28 24
3 90 29 28
3 45 47 29
3 46 33 47
3 49 70 48
3 50 49 48
3 1 50 52
3 73 1 52
3 53 73 75
3 56 53 75
3 54 56 78
3 79 54 78
3 11 79 57
3 58 11 57
3 7 58 59
3 80 7 59
3 6 80 67
3 63 6 67
3 64 63 65
3 70 64 65
3 66 67 80
3 107 63 67
3 68 65 63
3 69 70 65
3 71 48 70
3 72 50 48
3 96 52 50
3 97 73 52
3 74 75 73
3 76 56 75
3 77 78 56
3 100 79 78
3 79 101 57
3 101 58 57
3 103 59 58
3 102 80 59
3 39 92 115
3 116 39 115
3 41 116 83
3 85 41 83
3 84 85 117
3 86 84 117
3 88 86 87
3 121 88 87
3 90 121 89
3 123 90 89
3 46 123 127
3 126 46 127
3 91 126 110
3 113 91 110
3 38 113 114
3 92 38 114
3 72 95 94
3 112 72 94
3 97 112 111
3 98 97 111
3 76 98 125
3 124 76 125
3 100 124 122
3 120 100 122
3 101 120 119
3 118 101 119
3 102 118 105
3 104 102 105
3 107 104 106
3 108 107 106
3 69 108 109
3 95 69 109
3 111 126 98
3 112 110 111
3 94 113 112
3 95 114 94
3 109 92 95
3 109 116 115
3 106 116 108
3 104 83 106
3 105 85 104
3 118 117 105
3 118 87 86
3 120 87 119
3 122 121 120
3 124 89 122
3 125 123 124
3 98 127 125
3 129 128 160
3 129 161 128
3 130 163 161
3 131 165 163
3 132 160 133
3 132 134 135
3 135 154 136
3 136 157 137
3 138 150 167
3 138 141 150
3 139 140 141
3 142 157 140
3 143 167 144
3 143 146 145
3 145 147 148
3 148 165 149
3 151 167 150
3 141 151 150
3 153 141 140
3 157 153 140
3 155 157 154
3 134 155 154
3 158 134 133
3 160 158 133
3 180 160 128
3 161 180 128
3 164 161 163
3 165 164 163
3 169 165 147
3 146 169 147
3 172 146 144
3 167 172 144
3 166 170 168
3 171 170 169
3 171 184 173
3 174 184 172
3 174 186 175
3 152 186 151
3 152 187 176
3 156 187 153
3 156 189 188
3 159 189 155
3 159 177 192
3 179 177 158
3 179 194 178
3 162 194 180
3 162 195 181
3 166 195 164
3 170 210 168
3 173 183 170
3 184 182 173
3 175 209 184
3 186 185 175
3 176 208 186
3 176 205 206
3 188 205 187
3 188 191 190
3 192 191 189
3 177 201 192
3 178 193 177
3 194 199 178
3 181 198 194
3 195 196 181
3 168 197 195
3 212 197 210
3 214 197 213
3 214 198 196
3 200 198 216
3 200 193 199
3 218 193 217
3 218 191 201
3 221 191 202
3 221 205 190
3 204 205 203
3 204 208 206
3 207 208 223
3 207 209 185
3 226 209 225
3 226 183 182
3 212 183 228
3 211 213 212
3 242 213 243
3 242 216 214
3 215 216 241
3 215 217 200
3 237 217 238
3 237 202 218
3 219 202 235
3 219 203 221
3 234 203 220
3 234 223 204
3 231 223 222
3 231 225 207
3 229 225 224
3 229 228 226
3 211 228 227
3 227 245 211
3 229 230 227
3 229 247 246
3 224 232 247
3 222 232 231
3 234 233 222
3 234 250 248
3 220 251 250
3 219 236 251
3 235 252 236
3 238 252 237
3 215 253 238
3 241 240 215
3 242 239 241
3 243 254 242
3 211 244 243
3 249 245 230
3 249 230 246
3 249 246 247
3 249 247 232
3 249 232 233
3 249 233 248
3 249 248 250
3 249 250 251
3 249 251 236
3 249 236 252
3 249 252 253
3 249 253 240
3 249 240 239
3 249 239 254
3 249 254 244
3 249 244 245
3 256 257 255
3 256 285 258
3 282 259 284
3 260 259 271
3 261 292 291
3 261 262 273
3 264 265 263
3 279 265 266
3 285 278 258
3 268 257 267
3 282 268 270
3 272 260 271
3 262 272 273
3 264 275 274
3 275 292 276
3 278 279 266
3 277 264 292
3 289 290 280
3 282 257 269
3 262 290 283
3 283 290 281
3 281 260 283
3 285 289 286
3 286 289 280
3 280 279 286
3 297 257 282
3 284 297 282
3 284 281 287
3 303 255 257
3 288 289 255
3 289 287 281
3 290 311 280
3 309 290 291
3 307 291 292
3 263 280 311
3 263 310 264
3 310 292 264
3 314 294 293
3 294 310 293
3 300 295 296
3 295 297 296
3 297 301 298
3 300 297 298
3 299 298 304
3 304 301 302
3 302 287 288
3 302 303 304
3 303 299 304
3 306 307 305
3 307 308 305
3 308 313 305
3 305 312 306
3 306 311 309
3 310 312 313
3 314 310 313
3 15 2 1
3 2 30 51
3 30 32 49
3 32 3 4
3 3 5 64
3 5 18 62
3 18 20 6
3 20 19 61
3 19 8 7
3 8 9 60
3 9 10 11
3 10 25 12
3 25 13 54
3 13 27 55
3 27 14 53
3 14 15 0
3 5 3 16
3 40 18 5
3 20 18 40
3 22 19 20
3 8 19 22
3 23 9 8
3 10 9 23
3 24 25 10
3 13 25 24
3 29 27 13
3 14 27 29
3 33 15 14
3 2 15 33
3 31 30 2
3 32 30 31
3 16 3 32
3 34 91 35
3 91 36 31
3 36 38 37
3 38 93 16
3 16 93 39
3 39 81 40
3 81 41 21
3 41 82 22
3 82 84 42
3 84 43 23
3 43 88 26
3 88 44 24
3 44 90 28
3 90 45 29
3 45 46 47
3 46 34 33
3 49 4 70
3 50 51 49
3 1 51 50
3 73 0 1
3 53 0 73
3 56 55 53
3 54 55 56
3 79 12 54
3 11 12 79
3 58 60 11
3 7 60 58
3 80 61 7
3 6 61 80
3 63 62 6
3 64 62 63
3 70 4 64
3 66 107 67
3 107 68 63
3 68 69 65
3 69 71 70
3 71 72 48
3 72 96 50
3 96 97 52
3 97 74 73
3 74 76 75
3 76 77 56
3 77 100 78
3 100 99 79
3 79 99 101
3 101 103 58
3 103 102 59
3 102 66 80
3 39 93 92
3 116 81 39
3 41 81 116
3 85 82 41
3 84 82 85
3 86 43 84
3 88 43 86
3 121 44 88
3 90 44 121
3 123 45 90
3 46 45 123
3 126 34 46
3 91 34 126
3 113 36 91
3 38 36 113
3 92 93 38
3 72 71 95
3 112 96 72
3 97 96 112
3 98 74 97
3 76 74 98
3 124 77 76
3 100 77 124
3 120 99 100
3 101 99 120
3 118 103 101
3 102 103 118
3 104 66 102
3 107 66 104
3 108 68 107
3 69 68 108
3 95 71 69
3 111 110 126
3 112 113 110
3 94 114 113
3 95 92 114
3 109 115 92
3 109 108 116
3 106 83 116
3 104 85 83
3 105 117 85
3 118 86 117
3 118 119 87
3 120 121 87
3 122 89 121
3 124 123 89
3 125 127 123
3 98 126 127
3 129 130 161
3 130 131 163
3 131 149 165
3 132 133 134
3 135 134 154
3 136 154 157
3 138 139 141
3 139 142 140
3 142 137 157
3 143 144 146
3 145 146 147
3 148 147 165
3 151 174 167
3 141 152 151
3 153 152 141
3 157 156 153
3 155 156 157
3 134 159 155
3 158 159 134
3 160 179 158
3 180 179 160
3 161 162 180
3 164 162 161
3 165 166 164
3 169 166 165
3 146 171 169
3 172 171 146
3 167 174 172
3 166 169 170
3 171 173 170
3 171 172 184
3 174 175 184
3 174 151 186
3 152 176 186
3 152 153 187
3 156 188 187
3 156 155 189
3 159 192 189
3 159 158 177
3 179 178 177
3 179 180 194
3 162 181 194
3 162 164 195
3 166 168 195
3 170 183 210
3 173 182 183
3 184 209 182
3 175 185 209
3 186 208 185
3 176 206 208
3 176 187 205
3 188 190 205
3 188 189 191
3 192 201 191
3 177 193 201
3 178 199 193
3 194 198 199
3 181 196 198
3 195 197 196
3 168 210 197
3 212 213 197
3 214 196 197
3 214 216 198
3 200 199 198
3 200 217 193
3 218 201 193
3 218 202 191
3 221 190 191
3 221 203 205
3 204 206 205
3 204 223 208
3 207 185 208
3 207 225 209
3 226 182 209
3 226 228 183
3 212 210 183
3 211 243 213
3 242 214 213
3 242 241 216
3 215 200 216
3 215 238 217
3 237 218 217
3 237 235 202
3 219 221 202
3 219 220 203
3 234 204 203
3 234 222 223
3 231 207 223
3 231 224 225
3 229 226 225
3 229 227 228
3 211 212 228
3 227 230 245
3 229 246 230
3 229 224 247
3 224 231 232
3 222 233 232
3 234 248 233
3 234 220 250
3 220 219 251
3 219 235 236
3 235 237 252
3 238 253 252
3 215 240 253
3 241 239 240
3 242 254 239
3 243 244 254
3 211 245 244
3 256 267 257
3 256 255 285
3 282 270 259
3 260 284 259
3 261 276 292
3 261 291 262
3 264 274 265
3 279 263 265
3 285 286 278
3 268 269 257
3 282 269 268
3 272 283 260
3 262 283 272
3 264 277 275
3 275 277 292
3 278 286 279
3 289 281 290
3 262 291 290
3 281 284 260
3 285 255 289
3 280 263 279
3 297 303 257
3 284 287 297
3 303 288 255
3 289 288 287
3 290 309 311
3 307 309 291
3 263 311 310
3 310 307 292
3 314 308 294
3 294 307 310
3 300 299 295
3 295 303 297
3 297 287 301
3 300 296 297
3 299 300 298
3 304 298 301
3 302 301 287
3 302 288 303
3 303 295 299
3 306 309 307
3 307 294 308
3 308 314 313
3 305 313 312
3 306 312 311
3 310 311 312
3 314 293 310
